# xmcd CD database file
#
# Track frame offsets:
#	150
#	32957
#	70970
#	98860
#	122420
#	158955
#	187152
#	213657
#	245755
#	271325
#	308260
#
# Disc length: 4498 seconds
#
# Revision: 0
# Processed by: cddbd v1.5.2PL0 Copyright (c) Steve Scherf et al.
# Submitted via: CDex 1.70beta2
#
DISCID=9e11900b
DTITLE=Scott Hamilton - Back In New York
DYEAR=2004
DGENRE=Jazz
TTITLE0=What Is This Thing Called Love
TTITLE1=Wonder Why
TTITLE2=Blue 'N' Boogie
TTITLE3=I've Grown Accustomed To Her Face
TTITLE4=Lullaby Of The Leaves
TTITLE5=Fine And Dandy
TTITLE6=Bouncing With Bud
TTITLE7=Love Letters
TTITLE8=This Is Wlways
TTITLE9=I've Just Seen Her
TTITLE10=Taking A Chance On Love
EXTD=YEAR: 2004
EXTT0=
EXTT1=
EXTT2=
EXTT3=
EXTT4=
EXTT5=
EXTT6=
EXTT7=
EXTT8=
EXTT9=
EXTT10=
PLAYORDER=
